<?xml version="1.0" standalone="no"?>
<!DOCTYPE svg PUBLIC "-//W3C//DTD SVG 20010904//EN"
 "http://www.w3.org/TR/2001/REC-SVG-20010904/DTD/svg10.dtd">
<svg version="1.0" xmlns="http://www.w3.org/2000/svg"
 width="1024.000000pt" height="1024.000000pt" viewBox="0 0 1024.000000 1024.000000"
 preserveAspectRatio="xMidYMid meet">
<metadata>
Created by potrace 1.11, written by Peter Selinger 2001-2013
</metadata>
<g transform="translate(0.000000,1024.000000) scale(0.100000,-0.100000)"
fill="#000000" stroke="none">
<path d="M5050 10050 c0 -6 -46 -10 -117 -10 -478 0 -1166 -141 -1663 -340
-252 -100 -442 -191 -642 -306 -560 -323 -1048 -746 -1449 -1254 -393 -499
-685 -1069 -855 -1670 -107 -378 -175 -773 -190 -1097 -3 -76 -10 -147 -15
-158 -18 -36 6 -465 41 -740 96 -757 342 -1439 750 -2080 228 -359 550 -733
878 -1024 638 -564 1372 -943 2187 -1130 984 -226 1990 -150 2950 224 145 56
479 218 630 305 398 229 729 483 1053 809 408 410 693 813 953 1346 261 536
410 1071 473 1700 28 274 23 718 -9 1003 -65 562 -220 1098 -461 1600 -316
657 -745 1208 -1309 1677 -518 432 -1159 770 -1791 945 -424 117 -780 175
-1147 187 -103 3 -190 10 -193 15 -7 11 -74 10 -74 -2z m659 -544 c96 -15 218
-36 270 -47 53 -11 125 -24 160 -30 36 -5 83 -16 105 -23 23 -8 85 -26 139
-41 53 -15 97 -31 97 -35 0 -5 24 -14 53 -20 28 -7 111 -37 184 -66 72 -30
136 -54 141 -54 27 0 380 -175 418 -207 15 -12 36 -25 47 -29 12 -4 58 -30
102 -58 44 -29 87 -55 96 -58 10 -4 48 -29 87 -56 38 -28 83 -57 98 -65 16 -8
50 -35 76 -59 26 -23 81 -70 124 -103 43 -33 115 -92 161 -131 104 -90 410
-406 453 -470 16 -23 127 -161 145 -180 28 -29 228 -333 287 -434 65 -113 200
-377 221 -435 9 -22 40 -101 70 -175 30 -74 66 -171 80 -215 36 -112 84 -275
90 -305 3 -14 16 -74 30 -135 77 -341 115 -736 103 -1090 -6 -190 -10 -240
-36 -465 -28 -248 -117 -620 -210 -881 -23 -63 -48 -134 -57 -159 -44 -128
-205 -455 -303 -617 -22 -36 -40 -68 -40 -71 0 -9 -109 -170 -172 -255 -32
-43 -58 -80 -58 -84 0 -14 -218 -272 -357 -421 -32 -34 -98 -99 -148 -143 -49
-44 -117 -106 -150 -138 -53 -50 -174 -148 -238 -191 -46 -30 -192 -135 -197
-140 -27 -31 -316 -196 -480 -275 -69 -33 -127 -63 -130 -66 -14 -18 -192 -89
-385 -155 -161 -55 -490 -142 -620 -165 -38 -6 -72 -15 -75 -20 -3 -4 -68 -15
-145 -25 -109 -14 -237 -18 -574 -21 -395 -4 -450 -2 -615 17 -99 12 -183 25
-186 30 -3 4 -30 11 -60 15 -103 14 -485 114 -650 170 -146 49 -366 139 -380
154 -3 3 -68 37 -145 75 -195 95 -426 228 -471 271 -6 5 -50 37 -98 70 -121
83 -282 209 -336 260 -25 24 -92 86 -150 138 -105 96 -125 116 -288 302 -88
100 -198 236 -217 267 -5 9 -37 54 -70 100 -81 113 -123 176 -150 223 -12 22
-40 69 -60 105 -21 36 -56 97 -77 135 -48 84 -195 404 -204 442 -4 16 -15 46
-25 68 -56 128 -152 452 -193 655 -165 815 -112 1633 154 2390 123 348 247
603 447 918 80 127 160 242 191 277 10 11 37 45 59 75 22 30 50 64 62 74 11
11 21 24 21 29 0 11 40 55 238 262 137 143 258 252 392 354 41 31 93 74 115
94 22 21 56 47 75 57 19 10 66 41 105 69 38 28 73 51 77 51 5 0 43 23 85 50
42 28 92 58 111 66 19 8 40 20 46 28 17 21 392 206 417 206 6 0 70 24 142 54
73 29 154 59 182 65 27 7 52 16 55 20 6 10 232 79 300 92 284 56 558 100 700
113 25 2 207 2 405 1 333 -2 373 -5 534 -29z"/>
<path d="M4835 9050 c-237 -24 -455 -56 -465 -70 -3 -3 -64 -18 -136 -33 -72
-15 -177 -42 -235 -60 l-104 -33 89 -23 c147 -39 446 -165 446 -189 0 -4 26
-23 58 -42 117 -69 372 -279 372 -306 0 -6 18 -28 41 -49 56 -55 192 -240 219
-297 12 -27 25 -48 29 -48 4 0 20 24 34 53 49 95 194 282 307 394 71 71 216
186 305 243 39 25 72 48 73 53 12 27 306 151 442 186 l65 17 -80 27 c-118 38
-178 53 -300 78 -60 12 -112 25 -115 29 -7 10 -158 36 -320 55 -158 19 -594
28 -725 15z"/>
<path d="M3280 8364 c-104 -16 -231 -49 -239 -62 -3 -5 -24 -15 -46 -22 -53
-17 -201 -91 -272 -137 -90 -57 -185 -137 -244 -205 -29 -35 -59 -69 -66 -76
-7 -7 -32 -39 -56 -70 -237 -312 -344 -768 -273 -1167 44 -246 136 -464 272
-644 27 -35 54 -73 61 -84 37 -64 224 -222 348 -295 39 -23 76 -47 84 -53 30
-26 198 -91 295 -114 242 -58 452 -59 671 -4 135 34 305 102 305 121 0 4 5 8
10 8 17 0 139 79 225 146 227 175 415 466 498 769 35 126 45 224 46 424 1 268
-37 430 -158 683 -28 58 -72 135 -98 170 -52 72 -200 244 -233 271 -117 98
-296 205 -422 252 -27 10 -48 21 -48 25 0 8 -131 43 -225 60 -92 18 -337 20
-435 4z"/>
<path d="M6610 8364 c-104 -16 -231 -49 -239 -62 -3 -5 -24 -15 -46 -22 -53
-17 -201 -91 -272 -137 -90 -57 -185 -137 -244 -205 -29 -35 -59 -69 -66 -76
-7 -7 -32 -39 -56 -70 -113 -148 -203 -345 -254 -552 -23 -93 -26 -130 -29
-315 -2 -118 1 -241 7 -280 37 -242 136 -480 275 -664 27 -35 54 -73 61 -84
37 -64 224 -222 348 -295 39 -23 76 -47 84 -53 30 -26 198 -91 295 -114 242
-58 452 -59 671 -4 135 34 305 102 305 121 0 4 5 8 10 8 17 0 139 79 225 146
177 137 333 346 429 573 124 294 155 599 92 911 -38 194 -136 430 -233 562
-52 72 -200 244 -233 271 -117 98 -296 205 -422 252 -27 10 -48 21 -48 25 0 8
-131 43 -225 60 -92 18 -337 20 -435 4z"/>
<path d="M1548 6734 c-43 -99 -61 -143 -78 -189 -10 -27 -35 -95 -55 -150 -93
-254 -173 -638 -200 -960 -33 -389 -8 -781 76 -1165 58 -261 144 -529 235
-728 13 -29 24 -55 24 -58 0 -10 128 -261 155 -303 14 -23 25 -45 25 -49 0 -5
46 -78 103 -162 56 -84 110 -167 121 -184 17 -29 168 -216 226 -281 95 -105
193 -206 259 -266 42 -38 101 -94 131 -123 30 -29 71 -64 90 -77 19 -13 46
-34 60 -47 31 -28 172 -126 243 -169 28 -17 61 -40 72 -50 29 -27 104 -73 153
-94 l42 -18 0 1613 0 1614 -67 11 c-161 28 -377 98 -515 167 -77 38 -220 125
-238 144 -8 9 -49 42 -90 73 -201 150 -411 408 -534 657 -39 80 -84 180 -99
222 -61 172 -109 402 -120 572 l-2 39 -17 -39z"/>
<path d="M8726 6639 c-3 -13 -10 -58 -16 -99 -43 -280 -170 -599 -328 -822
-152 -216 -237 -307 -402 -436 -47 -36 -92 -73 -101 -81 -9 -9 -39 -29 -67
-46 -29 -16 -52 -32 -52 -35 0 -3 26 -21 58 -39 155 -93 370 -290 501 -461
207 -270 353 -626 401 -974 5 -44 12 -81 13 -83 2 -1 11 21 22 50 10 28 21 57
25 62 4 6 19 44 33 85 169 481 248 972 234 1450 -14 458 -89 851 -247 1279
-33 90 -62 166 -64 169 -3 2 -7 -6 -10 -19z"/>
<path d="M5067 5742 c-143 -214 -244 -326 -417 -459 -47 -37 -89 -71 -95 -77
-18 -21 -144 -96 -238 -142 -122 -60 -324 -127 -469 -156 l-118 -23 -2 -1730
c-2 -1092 1 -1733 7 -1737 16 -12 237 -85 305 -101 36 -8 108 -27 160 -41 116
-31 213 -48 440 -78 150 -20 219 -23 485 -23 280 1 330 3 520 28 116 16 251
37 300 48 165 35 452 116 460 129 2 4 -21 13 -53 20 -31 7 -59 16 -62 19 -3 4
-36 18 -75 30 -205 68 -475 216 -584 320 -20 20 -66 62 -102 95 -68 62 -219
226 -219 239 0 4 -24 40 -53 80 -167 226 -286 526 -343 862 -23 137 -23 479 0
625 26 162 54 273 107 415 57 156 81 206 167 350 91 152 152 231 284 366 122
125 212 199 325 269 40 25 72 47 73 51 0 3 -27 21 -60 40 -33 18 -60 37 -60
40 0 3 -39 35 -87 71 -49 37 -126 104 -173 150 -83 80 -262 308 -311 395 -13
24 -26 43 -29 42 -3 0 -40 -53 -83 -117z"/>
<path d="M6615 4835 c-163 -26 -287 -66 -423 -134 -141 -71 -219 -127 -336
-244 -161 -159 -219 -240 -318 -441 -111 -225 -166 -538 -139 -795 43 -423
243 -801 550 -1039 47 -37 95 -75 106 -85 27 -25 245 -131 320 -156 347 -114
733 -86 1064 78 73 36 137 74 151 91 3 3 43 35 91 72 161 125 296 295 403 505
173 345 200 798 71 1179 -38 110 -138 305 -203 394 -74 101 -271 295 -357 352
-166 109 -347 181 -550 219 -90 16 -337 19 -430 4z"/>
</g>
</svg>
